<?xml version="1.0" encoding="UTF-8"?>
<svg version="1.1" xmlns="http://www.w3.org/2000/svg" width="476" height="476">
<path d="M0 0 C15.76986928 13.80886173 28.16479433 29.4903928 37.68212891 48.1628418 C38.20564941 49.16734375 38.20564941 49.16734375 38.73974609 50.19213867 C48.21196675 68.50800865 54.64153955 89.10360814 54.74462891 109.8503418 C54.97248962 113.37491078 55.1754961 114.66398839 57.71728516 117.16674805 C59.45840244 118.3406235 61.23520925 119.46306086 63.04150391 120.53393555 C70.30441101 125.01416078 74.64650689 131.98937817 76.68212891 140.1628418 C77.61674661 152.73151297 76.05991657 165.64875291 75.22119141 178.19018555 C75.06878554 180.5107712 74.91663982 182.83137396 74.76473999 185.1519928 C74.44659694 189.99590177 74.12511783 194.83957469 73.80126953 199.68310547 C73.38903213 205.85304381 72.98546171 212.02351305 72.58445168 218.19419003 C72.27235085 222.98088151 71.95544477 227.767246 71.63715744 232.55352974 C71.48657127 234.82693188 71.33747032 237.10043296 71.18996048 239.37403679 C68.46871112 281.17727932 68.46871112 281.17727932 57.86962891 291.1628418 C50.12637157 297.25638404 41.45488885 299.99690988 31.68212891 299.1628418 C22.54317553 297.44830493 15.45863154 292.13104952 10.24462891 284.5378418 C7.05328404 279.50079036 5.42718923 275.30782571 5.45166016 269.2956543 C5.45278809 268.16901367 5.45391602 267.04237305 5.45507812 265.8815918 C5.46812988 264.6956543 5.48118164 263.5097168 5.49462891 262.2878418 C5.50252441 261.07870117 5.51041992 259.86956055 5.51855469 258.6237793 C5.74765951 234.56454589 5.74765951 234.56454589 8.68212891 230.1628418 C11.18856835 228.77413886 13.7606934 227.62721371 16.36962891 226.4440918 C18.96335472 225.23822807 18.96335472 225.23822807 20.68212891 222.1628418 C21.34212891 222.1628418 22.00212891 222.1628418 22.68212891 222.1628418 C26.14451103 212.66190036 27.30480186 203.71442949 23.58447266 194.09643555 C20.7142264 187.94590785 16.61433382 185.80493728 10.68212891 183.1628418 C10.55487758 175.03407422 10.92645675 166.96216599 11.43212891 158.8503418 C11.49400391 157.6212207 11.55587891 156.39209961 11.61962891 155.12573242 C12.33449972 143.83673081 14.02683816 131.28065196 22.68212891 123.1628418 C29.74973392 117.88922851 37.73742466 113.88185632 46.68212891 114.1628418 C46.2458315 98.34706098 43.1772624 83.31689031 38.68212891 68.1628418 C34.90486095 69.42193112 34.65267891 71.03085182 32.83837891 74.37768555 C30.26114497 78.35672578 26.73467997 79.8704665 22.30712891 81.1003418 C17.91376257 81.17608949 14.40837245 80.55202148 10.68212891 78.1628418 C6.0001332 73.49525223 4.3339259 68.96764073 2.43212891 62.7253418 C-5.23495222 39.43895025 -20.3023424 23.08878425 -42.00537109 11.9128418 C-81.28888608 -7.36779243 -130.25721951 -8.78479265 -171.40771484 4.79956055 C-185.08709332 9.53348719 -197.41673149 15.44660867 -208.31787109 25.1628418 C-209.47416016 26.17797852 -209.47416016 26.17797852 -210.65380859 27.21362305 C-222.35494949 38.13601907 -229.04644304 52.96819362 -233.38037109 68.1628418 C-235.07037079 73.92006067 -236.84917837 78.06259958 -242.16943359 81.28393555 C-246.12805912 82.90337326 -250.12491238 82.68032721 -254.31787109 82.1628418 C-259.36401332 79.92011192 -261.34799558 76.9619323 -263.65380859 72.1628418 C-264.31787109 70.1628418 -264.31787109 70.1628418 -264.31787109 66.1628418 C-265.30787109 66.1628418 -266.29787109 66.1628418 -267.31787109 66.1628418 C-268.36012807 69.8186371 -269.34477268 73.48806085 -270.31787109 77.1628418 C-270.65431641 78.40936523 -270.99076172 79.65588867 -271.33740234 80.94018555 C-274.26609486 92.25184904 -275.4746713 103.5242853 -276.31787109 115.1628418 C-275.30080078 115.07583008 -275.30080078 115.07583008 -274.26318359 114.98706055 C-265.77929581 114.57579175 -260.03851001 116.53724387 -253.31396484 121.7019043 C-242.61846521 131.45028625 -241.10596891 144.88628096 -240.19287109 158.5378418 C-240.06332031 160.28967773 -240.06332031 160.28967773 -239.93115234 162.0769043 C-239.69377789 165.43782511 -239.49924473 168.79848854 -239.31787109 172.1628418 C-239.24648926 173.14269043 -239.17510742 174.12253906 -239.1015625 175.13208008 C-238.98647523 177.55861354 -238.92708098 179.76571474 -239.31787109 182.1628418 C-241.29443359 184.1706543 -241.29443359 184.1706543 -243.94287109 185.2878418 C-250.03631464 188.36908733 -253.69041581 191.90874937 -256.15771484 198.3581543 C-258.20076242 206.02292104 -257.53790104 212.4732824 -253.69287109 219.4128418 C-249.10666933 226.46180107 -244.25714498 229.09863059 -236.31787109 231.1628418 C-234.91415765 233.97026869 -234.98853156 236.50719048 -234.78271484 239.6394043 C-234.69570312 240.95038086 -234.60869141 242.26135742 -234.51904297 243.61206055 C-234.47577881 244.2983252 -234.43251465 244.98458984 -234.38793945 245.69165039 C-234.25717935 247.75924937 -234.11915148 249.82626261 -233.97998047 251.89331055 C-232.30626334 277.24881859 -232.30626334 277.24881859 -240.59521484 287.3503418 C-247.14802019 294.24490343 -255.55072369 299.1536119 -265.19287109 299.7253418 C-274.62324176 299.26640696 -282.7891509 294.71527464 -289.47802734 288.26831055 C-296.54083533 280.18581903 -297.55840666 269.84314552 -298.24755859 259.5300293 C-298.3603566 257.9671946 -298.3603566 257.9671946 -298.47543335 256.37278748 C-298.72186373 252.92827733 -298.95767883 249.48313619 -299.19287109 246.0378418 C-299.36275225 243.61748729 -299.53300678 241.19715896 -299.70361328 238.77685547 C-300.2063923 231.5951621 -300.69456818 224.41251472 -301.17848206 217.22953033 C-301.31951392 215.13848401 -301.4611313 213.04747806 -301.60290527 210.95648193 C-302.22266209 201.81067574 -302.83258396 192.66425954 -303.43338776 183.51718903 C-303.56703031 181.48810726 -303.70182075 179.45910446 -303.83685303 177.43011475 C-304.08993151 173.60821068 -304.33754369 169.78599156 -304.58349609 165.96362305 C-304.65829193 164.84386581 -304.73308777 163.72410858 -304.81015015 162.57041931 C-306.46372317 136.41712744 -306.46372317 136.41712744 -298.69287109 126.3503418 C-296.13141932 123.62299734 -293.57880879 122.27795385 -290.22412109 120.6706543 C-287.2303164 118.90193522 -285.64274416 117.93925297 -284.2890625 114.70410156 C-283.79410897 111.73516273 -283.57176535 108.85732451 -283.44287109 105.8503418 C-283.2609198 103.68569253 -283.07208021 101.52161157 -282.87646484 99.3581543 C-282.78993652 98.30015625 -282.7034082 97.2421582 -282.61425781 96.15209961 C-279.59818757 65.73301883 -263.28270583 36.60369214 -243.31787109 14.1628418 C-242.12748756 12.72772872 -240.93936857 11.29072802 -239.75537109 9.8503418 C-238.95099609 8.9634668 -238.14662109 8.0765918 -237.31787109 7.1628418 C-236.65787109 7.1628418 -235.99787109 7.1628418 -235.31787109 7.1628418 C-235.31787109 6.5028418 -235.31787109 5.8428418 -235.31787109 5.1628418 C-233.74846308 3.72471506 -232.10913075 2.3625413 -230.44287109 1.0378418 C-229.42580078 0.22831055 -228.40873047 -0.5812207 -227.36083984 -1.4152832 C-226.35666016 -2.21450195 -225.35248047 -3.0137207 -224.31787109 -3.8371582 C-223.55087891 -4.49200195 -222.78388672 -5.1468457 -221.99365234 -5.8215332 C-158.4648189 -59.48288641 -61.32408805 -52.64615106 0 0 Z " fill="#000000" transform="translate(352.31787109375,109.837158203125)"/>
<path d="M0 0 C4.50012548 3.36748226 7.95741651 7.06068396 11.375 11.5 C11.84832764 12.11093506 12.32165527 12.72187012 12.80932617 13.35131836 C20.31746896 23.19933191 26.09251363 33.64214329 31 45 C31.99 45 32.98 45 34 45 C34.556875 43.91203125 35.11375 42.8240625 35.6875 41.703125 C41.73291958 30.00765574 48.21857063 19.12632642 56.6875 9 C57.13915527 8.45956055 57.59081055 7.91912109 58.05615234 7.36230469 C60.78593722 4.1827314 63.5352668 1.37030847 67 -1 C70.49424402 -1.12479443 72.77733857 -0.9529567 75.59375 1.2421875 C77 2.75 77 2.75 79 6 C78.77203679 10.48572767 76.82275683 12.80918169 73.9375 16.125 C61.53236234 30.84628678 52.93627389 45.39867523 48 64 C47.76539063 64.83402344 47.53078125 65.66804688 47.2890625 66.52734375 C40.74767805 93.49870426 46.84008026 122.1472974 60 146 C63.16325991 151.07964262 66.76177411 155.63969991 70.7578125 160.08203125 C71.22324463 160.60998291 71.68867676 161.13793457 72.16821289 161.68188477 C73.48813801 163.16636717 74.83896954 164.62320051 76.19140625 166.078125 C78 169 78 169 77.91015625 172.671875 C76.76991964 176.8413239 75.54791594 178.53188456 72 181 C66.21001851 180.86472006 63.59203136 179.37190046 59.625 175.25 C48.81626436 163.90481844 38.98898546 148.96695638 34 134 C33.01 133.67 32.02 133.34 31 133 C30.67 134.175625 30.34 135.35125 30 136.5625 C25.74725015 149.16250768 18.43053448 159.86997682 10 170 C8.87464844 171.35544922 8.87464844 171.35544922 7.7265625 172.73828125 C1.91560042 179.51053631 1.91560042 179.51053631 -2 181 C-6.18519447 180.92526438 -8.28378219 180.60878514 -11.5 177.875 C-13 175 -13 175 -13.1875 171.6875 C-11.82946961 167.47045828 -10.07017181 165.45489199 -7.08984375 162.2734375 C12.78769228 140.64965064 21.03375477 113.10543246 20.28515625 84.11328125 C19.18652187 59.60775878 9.90790493 36.9393238 -6.5546875 18.796875 C-12.97493819 11.45358508 -12.97493819 11.45358508 -13.0625 6.375 C-10.86523724 -0.60454054 -6.79297809 -2.02597592 0 0 Z " fill="#000000" transform="translate(204,226)"/>
<path d="M0 0 C4.65915604 2.34966059 6.97043202 5.57305061 9.0625 10.3515625 C9.7695892 13.40476673 10.00355688 16.43564459 10.2109375 19.55859375 C10.31998917 20.91341606 10.31998917 20.91341606 10.4312439 22.29560852 C10.66480519 25.31308619 10.86745121 28.33135947 11.0625 31.3515625 C11.16866638 32.9559317 11.16866638 32.9559317 11.27697754 34.5927124 C11.72800621 41.54138088 12.12487636 48.49214911 12.49511719 55.44555664 C12.68784432 59.04549396 12.8904051 62.64478918 13.09375 66.24414062 C13.46448459 72.94479735 13.7857083 79.64638384 14.0625 86.3515625 C14.12310608 87.75828217 14.12310608 87.75828217 14.18493652 89.19342041 C14.2817387 91.69028639 14.34743607 94.18542467 14.3984375 96.68359375 C14.44093124 97.73869392 14.44093124 97.73869392 14.48428345 98.81510925 C14.5275682 103.78620569 13.15261009 106.52242154 10.0625 110.3515625 C5.81383147 113.92430649 1.65106029 115.7753863 -3.9375 115.3515625 C-11.46279917 113.29503036 -17.395402 110.18912186 -21.5 103.4140625 C-33.88459341 79.61545511 -35.66177047 46.82685759 -27.9375 21.3515625 C-24.78108639 13.13913073 -19.37438363 6.31027763 -12.9375 0.3515625 C-8.57787544 -1.10164569 -4.37857823 -1.46541126 0 0 Z " fill="#000000" transform="translate(31.9375,264.6484375)"/>
<path d="M0 0 C12.39749162 10.17230082 17.67416363 24.06085009 19.24267578 39.59521484 C21.04974993 61.90057872 18.56953723 87.24316919 6.8125 106.6875 C2.33876517 111.04350497 -3.55298275 113.86226836 -9.6875 115.0625 C-14.53442298 114.98432382 -17.63416715 113.78728717 -21.5625 111 C-25.91149163 106.31647055 -26.75360317 103.28285937 -26.7421875 97.06640625 C-26.74035965 95.91042686 -26.74035965 95.91042686 -26.73849487 94.73109436 C-26.61490514 81.69452162 -25.7300366 68.66783002 -24.96337891 55.65649414 C-24.73067864 51.70346 -24.50952412 47.74987202 -24.29136848 43.79601192 C-24.11981253 40.71488388 -23.94137239 37.63418257 -23.76098251 34.55356026 C-23.67658157 33.09581088 -23.59444355 31.63792844 -23.5147438 30.17991447 C-22.33470574 8.75955866 -22.33470574 8.75955866 -17.5625 3 C-11.85088613 -1.14371987 -6.90008074 -2.69271444 0 0 Z " fill="#000000" transform="translate(456.5625,265)"/>
<path d="M0 0 C17.33184137 11.68891627 26.55155501 32.76883745 30.74609375 52.51171875 C34.52826385 74.55264107 29.67895874 99.12198839 16.86914062 117.63427734 C6.40210079 132.2989496 6.40210079 132.2989496 -1 136 C-5.03191305 136.53758841 -6.5619036 136.3075996 -9.9375 133.9375 C-12 131 -12 131 -12.3125 127.8125 C-11.28038401 123.27118962 -8.12833283 120.07964013 -5.19140625 116.6015625 C5.07771277 104.41041586 12.02479519 90.10565519 13 74 C13.05285156 73.14277344 13.10570312 72.28554688 13.16015625 71.40234375 C13.70339386 53.85340713 8.65438152 37.03002715 -2 23 C-3.57298688 21.3856867 -5.17727316 19.80123445 -6.8125 18.25 C-10.64676982 14.57303356 -12.59531073 12.36213285 -13 7 C-11.87674977 3.69265209 -10.93138456 1.73868431 -8.1875 -0.4375 C-4.91918916 -1.27792279 -3.24899459 -1.06217131 0 0 Z " fill="#000000" transform="translate(177,248)"/>
<path d="M0 0 C2.76892471 2.55032539 3.88034671 4.07841509 4.3671875 7.828125 C3.89466753 11.90989323 2.4480325 13.50327928 -0.25 16.5625 C-1.03890625 17.47128906 -1.8278125 18.38007813 -2.640625 19.31640625 C-3.41921875 20.20199219 -4.1978125 21.08757812 -5 22 C-18.58766181 38.50109761 -22.36935512 57.03127167 -21 78 C-19.12159125 93.31774557 -12.012135 106.46024027 -2 118 C4.07628637 125.47427255 4.07628637 125.47427255 3.875 129.5 C2.73242723 132.76449364 1.92828818 134.09661268 -1 136 C-4.34069828 136.65450415 -6.84048498 136.23805447 -10 135 C-26.43734103 122.78793158 -35.43952337 101.7287302 -39.25 82.25 C-42.4811852 60.1265698 -38.18180327 37.90091449 -26 19 C-23.12804482 15.21742488 -20.08897211 11.6056729 -17 8 C-15.9790625 6.67742187 -15.9790625 6.67742187 -14.9375 5.328125 C-10.96853022 0.5589597 -6.22011326 -2.34982056 0 0 Z " fill="#000000" transform="translate(305,248)"/>
<path d="M0 0 C8.4895047 1.83106964 16.17746565 10.41984197 20.875 17.4375 C28.43490121 30.2369367 30.00286273 45.28073264 27.69140625 59.8046875 C27.01308784 62.20371192 26.19074363 64.40665631 25.1875 66.6875 C24.88199219 67.47769531 24.57648438 68.26789063 24.26171875 69.08203125 C19.92135397 79.10432809 11.12407515 89.07996584 1.125 93.625 C-1.92679512 93.723445 -3.42999465 92.52019642 -5.8125 90.6875 C-7.89811071 88.04572644 -8.8125 86.56970383 -8.8125 83.1875 C-7.75686033 80.54840083 -6.4617751 79.16418548 -4.40625 77.24609375 C4.64552977 68.39398559 9.49445824 59.45369547 9.6875 46.6875 C9.5295128 35.37216461 5.87923995 26.93111367 -1.8125 18.6875 C-3.46114545 17.33194707 -5.12253995 15.99118347 -6.8125 14.6875 C-8.49612837 12.31511456 -8.82462621 11.16042237 -8.75 8.25 C-7.12259574 3.80176169 -4.64338138 1.13504878 0 0 Z " fill="#000000" transform="translate(145.8125,269.3125)"/>
<path d="M0 0 C3.22943903 1.73286972 4.72423504 3.19338757 6.5625 6.375 C6.43533778 10.45361062 6.15513472 12.67522228 3.48828125 15.82421875 C2.19470703 16.93216797 2.19470703 16.93216797 0.875 18.0625 C-6.51106482 24.98296761 -10.85701304 33.19980049 -11.67578125 43.3203125 C-11.91311318 53.48811219 -9.92541083 62.30894869 -3.4375 70.375 C-1.11837761 72.7676157 1.23579429 75.11132904 3.63671875 77.421875 C5.99659794 79.81526161 6.49218439 80.84763294 6.9375 84.1875 C6.43537557 88.45555764 4.87139102 89.7429276 1.5625 92.375 C-0.6975181 93.22250679 -1.95166403 93.5046243 -4.296875 92.87890625 C-15.53109612 87.28500689 -22.87645561 76.99312586 -27.17382812 65.38623047 C-31.97199096 50.60860508 -31.79017961 36.59798616 -25.4375 22.375 C-23.35832124 18.79667089 -21.03551921 15.58816733 -18.4375 12.375 C-17.7775 11.385 -17.1175 10.395 -16.4375 9.375 C-15.7775 9.375 -15.1175 9.375 -14.4375 9.375 C-14.251875 8.818125 -14.06625 8.26125 -13.875 7.6875 C-11.14039372 3.28835076 -5.34750855 -1.37115604 0 0 Z " fill="#000000" transform="translate(329.4375,269.625)"/>
<path d="M0 0 C5.13101813 2.98167994 8.60457975 7.07476491 11.0625 12.4375 C12.42521028 18.97850932 11.81216741 23.51140664 8.6875 29.4375 C5.19772123 34.5226062 1.57462151 37.66439065 -4.3125 39.4375 C-10.24958892 40.27467225 -15.68465131 40.22369959 -20.75 36.765625 C-25.87159097 32.41227268 -29.25455194 28.25538748 -30.3125 21.4375 C-30.28961897 14.90496575 -29.18771769 9.33672786 -24.44140625 4.55078125 C-17.39217881 -1.82585935 -9.12755832 -4.12325994 0 0 Z " fill="#000000" transform="translate(128.3125,297.5625)"/>
<path d="M0 0 C4.6992228 3.5530709 9.19620504 8.06243168 10.5625 13.9375 C11.33578627 20.89707646 10.52748382 26.11352376 6.5625 31.9375 C2.08867402 37.52978247 -2.93723615 39.49201187 -9.875 40.375 C-17.34950266 39.45707862 -22.56018784 36.59282009 -27.24609375 30.71875 C-31.07822399 24.98940119 -31.39381738 19.73418422 -30.4375 12.9375 C-28.1388644 7.29232139 -24.18514806 2.7182231 -18.84765625 -0.25390625 C-12.7282371 -2.30693666 -6.0965733 -1.88439538 0 0 Z " fill="#000000" transform="translate(364.4375,297.0625)"/>
</svg>
