<?xml version="1.0" encoding="UTF-8"?>
<svg id="Livello_1" data-name="Livello 1" xmlns="http://www.w3.org/2000/svg" version="1.1" xmlns:inkscape="http://www.inkscape.org/namespaces/inkscape" xmlns:sodipodi="http://sodipodi.sourceforge.net/DTD/sodipodi-0.dtd" xmlns:svg="http://www.w3.org/2000/svg" viewBox="0 0 512 512">
  <defs>
    <style>
      .cls-1 {
        fill: #fff;
      }

      .cls-1, .cls-2, .cls-3 {
        stroke-width: 0px;
      }

      .cls-1, .cls-3 {
        fill-rule: evenodd;
      }

      .cls-2, .cls-3 {
        fill: #003480;
      }
    </style>
  </defs>
  <sodipodi:namedview id="namedview2" bordercolor="#000000" borderopacity="0.25" inkscape:current-layer="Livello_1" inkscape:cx="61.952862" inkscape:cy="318.51852" inkscape:deskcolor="#d1d1d1" inkscape:pagecheckerboard="0" inkscape:pageopacity="0.0" inkscape:showpageshadow="2" inkscape:window-height="1129" inkscape:window-maximized="1" inkscape:window-width="1920" inkscape:window-x="-8" inkscape:window-y="-8" inkscape:zoom="0.7425" pagecolor="#ffffff"/>
  <g>
    <path class="cls-1" d="M501.7,444.4c-4.9,12.6-16.4,30.4-32.7,43.1-9.4,7.2-20.6,14.2-36,18.8-16.4,5-36.6,6.5-61.9,6.5h-230.1c-25.2,0-45.3-1.7-61.9-6.5-15.3-4.6-26.6-11.5-36-18.8-16.2-12.5-27.8-30.4-32.7-43.1C.7,418.9.5,390,.5,371.8h0v-230.7h0c0-18.3.2-47.2,10.1-72.6,4.9-12.6,16.4-30.4,32.7-43.1,9.4-7.2,20.6-14.2,36-18.8C95.8,1.7,115.9,0,141.1,0h230.1c25.2,0,45.3,1.7,61.9,6.5,15.3,4.6,26.6,11.5,36,18.8,16.2,12.5,27.8,30.4,32.7,43.1,10.1,25.5,10.1,54.5,10.1,72.6v230.7c0,18.3-.2,47.2-10.1,72.6Z"/>
    <polygon class="cls-3" points="408.8 287.1 408.8 203.7 325 233.5 325 254.6 352.8 244.2 352.8 307 408.8 287.1"/>
    <path class="cls-3" d="M376.7,154.9c-33.4.1-64.6,16.4-83.8,43.7l15.1,10.3c25.6-37.7,77-47.5,114.7-21.9,23,15.6,36.6,41.7,36.2,69.5.4,45.8-36.4,83.3-82.2,83.8-.1,0-.3,0-.4,0-27.3-.3-52.7-13.7-68.3-36.1l-15.1,10.7c32.4,45.8,95.9,56.7,141.7,24.3,26.8-19,42.8-49.8,43-82.7.4-55.7-44.4-101.2-100.1-101.7-.3,0-.5,0-.8,0"/>
    <path class="cls-2" d="M248,209.7h-30.6v92.9h27.4c32.2,0,49.2-16.7,49.2-47.7s-15.9-45.3-46.1-45.3M246.8,287.1h-10.7v-61.5h10.7c18.3,0,27.4,9.9,27.4,31s-8.7,30.6-27.4,30.6"/>
    <path class="cls-2" d="M89.9,210.5h-23.4l-31.8,92.9h19.1l6-19.1h34.9l6.4,18.7h20.6l-31.8-92.5ZM64.9,268.1l8.7-28.2c1.6-4,2.8-8.1,3.6-12.3.8,3.2,2,7.5,3.6,12.3l9.1,28.2h-25Z"/>
    <path class="cls-2" d="M184.9,270.8c-1.2-2.4-2.7-4.7-4.4-6.8,11.6-3.4,19.4-14.2,19.1-26.2,0-18.7-11.5-28.2-33.8-28.2h-33v93.3h18.7v-35.3h10.3l20.6,35.3h22.6l-20.3-32.2ZM151.5,225.6h13.1c10.3,0,15.1,4.4,15.1,13.5s-5.2,13.1-15.5,13.1h-12.7v-26.6Z"/>
  </g>
</svg>
